<mxfile host="app.diagrams.net" modified="2022-04-21T08:34:16.421Z" agent="5.0 (Windows NT 10.0; Win64; x64) AppleWebKit/537.36 (KHTML, like Gecko) Chrome/100.0.4896.127 Safari/537.36" etag="w9ILvbDnyqLuJHBsIQ3y" version="17.4.5" type="github">
  <diagram id="JAUS7llx8-0UdaqlXuOL" name="Page-1">
    <mxGraphModel dx="1422" dy="762" grid="1" gridSize="10" guides="1" tooltips="1" connect="1" arrows="1" fold="1" page="1" pageScale="1" pageWidth="827" pageHeight="1169" math="0" shadow="0">
      <root>
        <mxCell id="0" />
        <mxCell id="1" parent="0" />
        <mxCell id="wALGmDCyJTzc0qNjFn5s-5" value="" style="edgeStyle=orthogonalEdgeStyle;rounded=0;orthogonalLoop=1;jettySize=auto;html=1;" parent="1" source="wALGmDCyJTzc0qNjFn5s-1" target="wALGmDCyJTzc0qNjFn5s-4" edge="1">
          <mxGeometry relative="1" as="geometry" />
        </mxCell>
        <mxCell id="wALGmDCyJTzc0qNjFn5s-1" value="FFC Pay services" style="rounded=1;whiteSpace=wrap;html=1;verticalAlign=top;" parent="1" vertex="1">
          <mxGeometry x="10" y="140" width="120" height="60" as="geometry" />
        </mxCell>
        <mxCell id="wALGmDCyJTzc0qNjFn5s-3" value="" style="aspect=fixed;html=1;points=[];align=center;image;fontSize=12;image=img/lib/azure2/compute/Kubernetes_Services.svg;" parent="1" vertex="1">
          <mxGeometry x="55" y="165" width="30" height="26.47" as="geometry" />
        </mxCell>
        <mxCell id="wALGmDCyJTzc0qNjFn5s-11" style="edgeStyle=orthogonalEdgeStyle;rounded=0;orthogonalLoop=1;jettySize=auto;html=1;" parent="1" source="wALGmDCyJTzc0qNjFn5s-4" target="wALGmDCyJTzc0qNjFn5s-9" edge="1">
          <mxGeometry relative="1" as="geometry" />
        </mxCell>
        <mxCell id="wALGmDCyJTzc0qNjFn5s-15" style="edgeStyle=orthogonalEdgeStyle;rounded=0;orthogonalLoop=1;jettySize=auto;html=1;entryX=0;entryY=0.5;entryDx=0;entryDy=0;fontSize=11;exitX=0.5;exitY=1;exitDx=0;exitDy=0;" parent="1" source="wALGmDCyJTzc0qNjFn5s-4" target="wALGmDCyJTzc0qNjFn5s-13" edge="1">
          <mxGeometry relative="1" as="geometry">
            <Array as="points">
              <mxPoint x="310" y="290" />
            </Array>
          </mxGeometry>
        </mxCell>
        <mxCell id="wALGmDCyJTzc0qNjFn5s-21" style="edgeStyle=orthogonalEdgeStyle;rounded=0;orthogonalLoop=1;jettySize=auto;html=1;entryX=0.5;entryY=1;entryDx=0;entryDy=0;fontSize=12;" parent="1" source="wALGmDCyJTzc0qNjFn5s-4" target="wALGmDCyJTzc0qNjFn5s-19" edge="1">
          <mxGeometry relative="1" as="geometry" />
        </mxCell>
        <mxCell id="wALGmDCyJTzc0qNjFn5s-24" style="edgeStyle=orthogonalEdgeStyle;rounded=0;orthogonalLoop=1;jettySize=auto;html=1;fontSize=12;" parent="1" source="wALGmDCyJTzc0qNjFn5s-4" target="wALGmDCyJTzc0qNjFn5s-22" edge="1">
          <mxGeometry relative="1" as="geometry" />
        </mxCell>
        <mxCell id="wALGmDCyJTzc0qNjFn5s-4" value="ffc-pay-event" style="whiteSpace=wrap;html=1;verticalAlign=top;rounded=1;" parent="1" vertex="1">
          <mxGeometry x="250" y="140" width="120" height="60" as="geometry" />
        </mxCell>
        <mxCell id="wALGmDCyJTzc0qNjFn5s-6" value="" style="aspect=fixed;html=1;points=[];align=center;image;fontSize=12;image=img/lib/azure2/compute/Function_Apps.svg;" parent="1" vertex="1">
          <mxGeometry x="295" y="165" width="30" height="26.47" as="geometry" />
        </mxCell>
        <mxCell id="wALGmDCyJTzc0qNjFn5s-7" value="ffc-pay-event" style="sketch=0;aspect=fixed;html=1;points=[];align=center;image;fontSize=12;image=img/lib/mscae/Service_Bus.svg;" parent="1" vertex="1">
          <mxGeometry x="180" y="135" width="30" height="30" as="geometry" />
        </mxCell>
        <mxCell id="wALGmDCyJTzc0qNjFn5s-27" style="edgeStyle=orthogonalEdgeStyle;rounded=0;orthogonalLoop=1;jettySize=auto;html=1;fontSize=12;" parent="1" source="wALGmDCyJTzc0qNjFn5s-9" target="wALGmDCyJTzc0qNjFn5s-26" edge="1">
          <mxGeometry relative="1" as="geometry" />
        </mxCell>
        <mxCell id="wALGmDCyJTzc0qNjFn5s-9" value="ffc-pay-alerts" style="whiteSpace=wrap;html=1;verticalAlign=top;rounded=1;" parent="1" vertex="1">
          <mxGeometry x="530" y="140" width="120" height="60" as="geometry" />
        </mxCell>
        <mxCell id="wALGmDCyJTzc0qNjFn5s-10" value="" style="aspect=fixed;html=1;points=[];align=center;image;fontSize=12;image=img/lib/azure2/compute/Function_Apps.svg;" parent="1" vertex="1">
          <mxGeometry x="575" y="165" width="30" height="26.47" as="geometry" />
        </mxCell>
        <mxCell id="wALGmDCyJTzc0qNjFn5s-12" value="ffc-pay-alerts" style="sketch=0;aspect=fixed;html=1;points=[];align=center;image;fontSize=12;image=img/lib/mscae/Service_Bus.svg;" parent="1" vertex="1">
          <mxGeometry x="440" y="135" width="30" height="30" as="geometry" />
        </mxCell>
        <mxCell id="wALGmDCyJTzc0qNjFn5s-30" value="" style="edgeStyle=orthogonalEdgeStyle;rounded=0;orthogonalLoop=1;jettySize=auto;html=1;fontSize=12;" parent="1" source="wALGmDCyJTzc0qNjFn5s-13" target="wALGmDCyJTzc0qNjFn5s-29" edge="1">
          <mxGeometry relative="1" as="geometry" />
        </mxCell>
        <mxCell id="wALGmDCyJTzc0qNjFn5s-42" style="edgeStyle=orthogonalEdgeStyle;rounded=0;orthogonalLoop=1;jettySize=auto;html=1;entryX=1;entryY=0.5;entryDx=0;entryDy=0;fontSize=12;exitX=0.5;exitY=1;exitDx=0;exitDy=0;" parent="1" source="wALGmDCyJTzc0qNjFn5s-13" target="wALGmDCyJTzc0qNjFn5s-22" edge="1">
          <mxGeometry relative="1" as="geometry">
            <Array as="points">
              <mxPoint x="590" y="410" />
            </Array>
          </mxGeometry>
        </mxCell>
        <mxCell id="wALGmDCyJTzc0qNjFn5s-13" value="ffc-pay-event-projection" style="whiteSpace=wrap;html=1;verticalAlign=top;rounded=1;fontSize=11;" parent="1" vertex="1">
          <mxGeometry x="530" y="260" width="120" height="60" as="geometry" />
        </mxCell>
        <mxCell id="wALGmDCyJTzc0qNjFn5s-14" value="" style="aspect=fixed;html=1;points=[];align=center;image;fontSize=12;image=img/lib/azure2/compute/Function_Apps.svg;" parent="1" vertex="1">
          <mxGeometry x="575" y="285" width="30" height="26.47" as="geometry" />
        </mxCell>
        <mxCell id="wALGmDCyJTzc0qNjFn5s-16" value="ffc-pay-event-projection" style="sketch=0;aspect=fixed;html=1;points=[];align=center;image;fontSize=12;image=img/lib/mscae/Service_Bus.svg;" parent="1" vertex="1">
          <mxGeometry x="440" y="255" width="30" height="30" as="geometry" />
        </mxCell>
        <mxCell id="wALGmDCyJTzc0qNjFn5s-34" style="edgeStyle=orthogonalEdgeStyle;rounded=0;orthogonalLoop=1;jettySize=auto;html=1;entryX=0;entryY=0.5;entryDx=0;entryDy=0;fontSize=12;" parent="1" source="wALGmDCyJTzc0qNjFn5s-19" target="wALGmDCyJTzc0qNjFn5s-32" edge="1">
          <mxGeometry relative="1" as="geometry" />
        </mxCell>
        <mxCell id="wALGmDCyJTzc0qNjFn5s-19" value="SignalR" style="rounded=1;whiteSpace=wrap;html=1;fontSize=12;verticalAlign=top;" parent="1" vertex="1">
          <mxGeometry x="250" y="10" width="120" height="60" as="geometry" />
        </mxCell>
        <mxCell id="wALGmDCyJTzc0qNjFn5s-20" value="" style="sketch=0;aspect=fixed;html=1;points=[];align=center;image;fontSize=12;image=img/lib/mscae/SignalR.svg;" parent="1" vertex="1">
          <mxGeometry x="295" y="32" width="30" height="30" as="geometry" />
        </mxCell>
        <mxCell id="wALGmDCyJTzc0qNjFn5s-22" value="payeventstore" style="rounded=1;whiteSpace=wrap;html=1;fontSize=12;verticalAlign=top;" parent="1" vertex="1">
          <mxGeometry x="250" y="380" width="120" height="60" as="geometry" />
        </mxCell>
        <mxCell id="wALGmDCyJTzc0qNjFn5s-25" value="" style="verticalLabelPosition=bottom;html=1;verticalAlign=top;align=center;strokeColor=none;fillColor=#00BEF2;shape=mxgraph.azure.storage_table;fontSize=12;aspect=fixed;" parent="1" vertex="1">
          <mxGeometry x="295" y="407" width="30" height="27" as="geometry" />
        </mxCell>
        <mxCell id="wALGmDCyJTzc0qNjFn5s-26" value="GOV.UK notify" style="whiteSpace=wrap;html=1;verticalAlign=top;rounded=1;" parent="1" vertex="1">
          <mxGeometry x="730" y="140" width="120" height="60" as="geometry" />
        </mxCell>
        <mxCell id="wALGmDCyJTzc0qNjFn5s-28" value="" style="outlineConnect=0;dashed=0;verticalLabelPosition=bottom;verticalAlign=top;align=center;html=1;shape=mxgraph.aws3.email;fillColor=#D9A741;gradientColor=none;fontSize=12;aspect=fixed;" parent="1" vertex="1">
          <mxGeometry x="775" y="166.85" width="30" height="22.78" as="geometry" />
        </mxCell>
        <mxCell id="wALGmDCyJTzc0qNjFn5s-29" value="payeventstore" style="whiteSpace=wrap;html=1;verticalAlign=top;rounded=1;fontSize=11;" parent="1" vertex="1">
          <mxGeometry x="730" y="260" width="120" height="60" as="geometry" />
        </mxCell>
        <mxCell id="wALGmDCyJTzc0qNjFn5s-31" value="" style="verticalLabelPosition=bottom;html=1;verticalAlign=top;align=center;strokeColor=none;fillColor=#00BEF2;shape=mxgraph.azure.storage_blob;fontSize=12;aspect=fixed;" parent="1" vertex="1">
          <mxGeometry x="775" y="287" width="30" height="27" as="geometry" />
        </mxCell>
        <mxCell id="wALGmDCyJTzc0qNjFn5s-32" value="ffc-pay-event-signalr" style="whiteSpace=wrap;html=1;verticalAlign=top;rounded=1;" parent="1" vertex="1">
          <mxGeometry x="530" y="10" width="120" height="60" as="geometry" />
        </mxCell>
        <mxCell id="wALGmDCyJTzc0qNjFn5s-33" value="" style="aspect=fixed;html=1;points=[];align=center;image;fontSize=12;image=img/lib/azure2/compute/Function_Apps.svg;" parent="1" vertex="1">
          <mxGeometry x="575" y="35" width="30" height="26.47" as="geometry" />
        </mxCell>
        <mxCell id="wALGmDCyJTzc0qNjFn5s-40" style="edgeStyle=orthogonalEdgeStyle;rounded=0;orthogonalLoop=1;jettySize=auto;html=1;fontSize=12;" parent="1" source="wALGmDCyJTzc0qNjFn5s-35" target="wALGmDCyJTzc0qNjFn5s-37" edge="1">
          <mxGeometry relative="1" as="geometry" />
        </mxCell>
        <mxCell id="wALGmDCyJTzc0qNjFn5s-41" style="edgeStyle=orthogonalEdgeStyle;rounded=0;orthogonalLoop=1;jettySize=auto;html=1;entryX=0.5;entryY=1;entryDx=0;entryDy=0;fontSize=12;" parent="1" source="wALGmDCyJTzc0qNjFn5s-35" target="wALGmDCyJTzc0qNjFn5s-22" edge="1">
          <mxGeometry relative="1" as="geometry" />
        </mxCell>
        <mxCell id="wALGmDCyJTzc0qNjFn5s-35" value="ffc-pay-mi-reporting" style="whiteSpace=wrap;html=1;verticalAlign=top;rounded=1;fontSize=11;" parent="1" vertex="1">
          <mxGeometry x="250" y="500" width="120" height="60" as="geometry" />
        </mxCell>
        <mxCell id="wALGmDCyJTzc0qNjFn5s-36" value="" style="aspect=fixed;html=1;points=[];align=center;image;fontSize=12;image=img/lib/azure2/compute/Function_Apps.svg;" parent="1" vertex="1">
          <mxGeometry x="295" y="525" width="30" height="26.47" as="geometry" />
        </mxCell>
        <mxCell id="wALGmDCyJTzc0qNjFn5s-37" value="reports" style="whiteSpace=wrap;html=1;verticalAlign=top;rounded=1;fontSize=11;" parent="1" vertex="1">
          <mxGeometry x="530" y="500" width="120" height="60" as="geometry" />
        </mxCell>
        <mxCell id="wALGmDCyJTzc0qNjFn5s-38" value="" style="verticalLabelPosition=bottom;html=1;verticalAlign=top;align=center;strokeColor=none;fillColor=#00BEF2;shape=mxgraph.azure.storage_blob;fontSize=12;aspect=fixed;" parent="1" vertex="1">
          <mxGeometry x="575" y="527" width="30" height="27" as="geometry" />
        </mxCell>
        <mxCell id="wALGmDCyJTzc0qNjFn5s-45" style="edgeStyle=orthogonalEdgeStyle;rounded=0;orthogonalLoop=1;jettySize=auto;html=1;entryX=0.5;entryY=1;entryDx=0;entryDy=0;fontSize=12;" parent="1" source="wALGmDCyJTzc0qNjFn5s-43" target="wALGmDCyJTzc0qNjFn5s-29" edge="1">
          <mxGeometry relative="1" as="geometry" />
        </mxCell>
        <mxCell id="wALGmDCyJTzc0qNjFn5s-46" style="edgeStyle=orthogonalEdgeStyle;rounded=0;orthogonalLoop=1;jettySize=auto;html=1;entryX=1;entryY=0.5;entryDx=0;entryDy=0;fontSize=12;" parent="1" source="wALGmDCyJTzc0qNjFn5s-43" target="wALGmDCyJTzc0qNjFn5s-37" edge="1">
          <mxGeometry relative="1" as="geometry" />
        </mxCell>
        <mxCell id="wALGmDCyJTzc0qNjFn5s-48" style="edgeStyle=orthogonalEdgeStyle;rounded=0;orthogonalLoop=1;jettySize=auto;html=1;entryX=1;entryY=0.5;entryDx=0;entryDy=0;fontSize=12;" parent="1" source="wALGmDCyJTzc0qNjFn5s-43" target="wALGmDCyJTzc0qNjFn5s-32" edge="1">
          <mxGeometry relative="1" as="geometry">
            <Array as="points">
              <mxPoint x="880" y="530" />
              <mxPoint x="880" y="40" />
            </Array>
          </mxGeometry>
        </mxCell>
        <mxCell id="wALGmDCyJTzc0qNjFn5s-43" value="ffc-pay-web" style="rounded=1;whiteSpace=wrap;html=1;verticalAlign=top;" parent="1" vertex="1">
          <mxGeometry x="730" y="500" width="120" height="60" as="geometry" />
        </mxCell>
        <mxCell id="wALGmDCyJTzc0qNjFn5s-44" value="" style="aspect=fixed;html=1;points=[];align=center;image;fontSize=12;image=img/lib/azure2/compute/Kubernetes_Services.svg;" parent="1" vertex="1">
          <mxGeometry x="775" y="525" width="30" height="26.47" as="geometry" />
        </mxCell>
        <mxCell id="wALGmDCyJTzc0qNjFn5s-47" value="" style="shape=image;html=1;verticalAlign=top;verticalLabelPosition=bottom;labelBackgroundColor=#ffffff;imageAspect=0;aspect=fixed;image=https://cdn4.iconfinder.com/data/icons/48-bubbles/48/37.Stopwatch-128.png;fontSize=12;" parent="1" vertex="1">
          <mxGeometry x="280" y="470" width="30" height="30" as="geometry" />
        </mxCell>
      </root>
    </mxGraphModel>
  </diagram>
</mxfile>
